<svg width="24" height="24" viewBox="0 0 24 24" fill="none" xmlns="http://www.w3.org/2000/svg">
<path fill-rule="evenodd" clip-rule="evenodd" d="M20.6666 0.0830078C22.4616 0.0830078 23.9166 1.53809 23.9166 3.33301V20.6663C23.9166 22.4613 22.4616 23.9163 20.6666 23.9163H3.33325C1.53833 23.9163 0.083252 22.4613 0.083252 20.6663V3.33301C0.083252 1.53809 1.53833 0.0830078 3.33325 0.0830078H20.6666ZM20.6666 2.24967C21.2649 2.24967 21.7499 2.7347 21.7499 3.33301V20.6663C21.7499 21.2647 21.2649 21.7497 20.6666 21.7497H3.33325C2.73495 21.7497 2.24992 21.2647 2.24992 20.6663V3.33301C2.24992 2.7347 2.73495 2.24967 3.33325 2.24967H20.6666Z" fill="#374151"/>
</svg>
