<svg width="364" height="364" viewBox="0 0 364 364" fill="none" xmlns="http://www.w3.org/2000/svg">
<path opacity="0.18" d="M202.967 53.1657C182.964 64.9366 160.338 71.2935 138.057 77.8227C115.776 84.352 93.2357 91.226 73.7718 103.87C54.308 116.513 37.9957 135.816 34.2031 158.716C32.8078 167.163 33.1257 175.907 30.7015 184.122C25.9877 200.128 11.8033 211.559 4.84307 226.708C-4.83767 247.664 0.910439 273.264 14.1629 292.167C31.5365 316.916 60.2285 331.984 89.7933 338.346C119.358 344.708 150.011 343.195 180.125 340.436C213.779 337.312 247.804 332.517 278.845 319.103C309.886 305.689 337.996 282.68 351.2 251.559C359.879 231.088 365.837 208.144 362.179 186.229C333.713 15.6333 215.648 45.7098 202.967 53.1657Z" fill="#60A5FA"/>
<path d="M136.118 100.583C135.603 100.558 135.089 100.648 134.614 100.846C134.139 101.045 133.714 101.347 133.37 101.731C132.948 102.313 132.681 102.994 132.594 103.708C132.244 105.84 132.464 108.026 133.233 110.045C134.001 112.065 135.29 113.844 136.969 115.204C138.084 116.082 139.479 116.783 140.88 116.54C141.04 116.526 141.192 116.46 141.311 116.352C141.431 116.187 141.487 115.984 141.467 115.781C141.58 112.009 141.672 108.152 140.223 104.694C139.21 102.286 139.134 100.621 136.118 100.583Z" fill="url(#paint0_linear_234_665)"/>
<path d="M223.379 100.583C223.894 100.558 224.409 100.648 224.885 100.846C225.361 101.045 225.787 101.347 226.132 101.731C226.549 102.315 226.814 102.995 226.902 103.708C227.254 105.839 227.035 108.026 226.267 110.045C225.5 112.064 224.211 113.844 222.533 115.204C221.418 116.082 220.017 116.783 218.617 116.54C218.456 116.525 218.305 116.459 218.186 116.352C218.067 116.186 218.012 115.983 218.029 115.781C217.916 112.01 217.83 108.152 219.279 104.694C220.287 102.286 220.362 100.621 223.379 100.583Z" fill="url(#paint1_linear_234_665)"/>
<path d="M343.039 286.872H23.4503C13.7094 286.872 5.81274 294.769 5.81274 304.51V325.019C5.81274 334.76 13.7094 342.656 23.4503 342.656H343.039C352.78 342.656 360.676 334.76 360.676 325.019V304.51C360.676 294.769 352.78 286.872 343.039 286.872Z" fill="#60A5FA"/>
<path d="M343.039 286.872H23.4503C13.7094 286.872 5.81274 294.769 5.81274 304.51V325.019C5.81274 334.76 13.7094 342.656 23.4503 342.656H343.039C352.78 342.656 360.676 334.76 360.676 325.019V304.51C360.676 294.769 352.78 286.872 343.039 286.872Z" fill="url(#paint2_linear_234_665)"/>
<path d="M142.226 136.893C142.226 136.893 100.745 134.464 82.6121 156.605C64.4789 178.746 73.9334 283.112 73.9334 283.112L265.566 287.475L273.366 169.399C274.137 144.494 244.249 136.78 212.728 136.882H211.08C155.597 137.448 142.226 136.893 142.226 136.893Z" fill="#60A5FA"/>
<path d="M142.226 136.893C142.226 136.893 100.745 134.464 82.6121 156.605C64.4789 178.746 73.9334 283.112 73.9334 283.112L265.566 287.475L273.366 169.399C274.137 144.494 244.249 136.78 212.728 136.882H211.08C155.597 137.448 142.226 136.893 142.226 136.893Z" fill="url(#paint3_linear_234_665)"/>
<path d="M108.934 141.828C108.934 141.828 74.8009 141.828 42.187 226.821L84.0237 245.806L105.12 219.527L108.934 141.828ZM248.515 141.828C248.515 141.828 282.649 141.828 315.262 226.821L273.426 245.806L252.33 219.527L248.515 141.828Z" fill="#60A5FA"/>
<path opacity="0.24" d="M62.3997 228.674C61.4802 228.251 60.6554 227.648 59.9742 226.899C59.293 226.151 58.7694 225.273 58.4346 224.318C58.0998 223.362 57.9607 222.35 58.0255 221.34C58.0903 220.33 58.3577 219.343 58.8118 218.439C67.3882 201.356 93.6506 161.335 111.477 158.975C133.807 156.007 159.261 152.898 159.261 152.898C159.261 152.898 236.61 151.487 249.458 160.441C259.516 167.444 282.32 197.332 294.743 213.919C297.614 217.76 296.542 224.806 292.189 226.848L261.482 251.742C260.476 252.212 259.584 252.896 258.87 253.746L238.264 278.376C237.514 279.272 236.567 279.982 235.497 280.449C234.426 280.917 233.262 281.129 232.095 281.07L123.883 275.731C122.393 275.66 120.957 275.149 119.758 274.262C118.558 273.375 117.649 272.152 117.144 270.748L104.323 235.16C103.836 233.792 102.964 232.592 101.812 231.707C100.659 230.822 99.2761 230.288 97.8279 230.17C96.3797 230.053 94.9283 230.356 93.6483 231.043C92.3682 231.73 91.3139 232.773 90.6122 234.045C89.6856 235.715 88.1599 236.972 86.3432 237.56C84.5264 238.149 82.5539 238.027 80.8238 237.218L62.3997 228.674Z" fill="white"/>
<path d="M346.362 276.243H26.7743C17.0333 276.243 9.13672 284.14 9.13672 293.881V314.39C9.13672 324.131 17.0333 332.027 26.7743 332.027H346.362C356.103 332.027 364 324.131 364 314.39V293.881C364 284.14 356.103 276.243 346.362 276.243Z" fill="#60A5FA"/>
<path opacity="0.18" d="M35.8085 296.386C37.1499 297.226 38.7337 297.264 40.2475 297.291L68.1961 297.689C66.3128 298.713 64.557 299.955 62.9652 301.39C56.7699 306.961 60.4925 317.228 68.821 317.514C132.093 319.669 195.419 318.92 258.708 318.171C268.588 318.053 278.506 317.934 288.337 316.927C289.753 316.786 291.107 316.275 292.262 315.443C293.416 314.612 294.331 313.49 294.913 312.192C295.495 310.894 295.724 309.465 295.577 308.049C295.43 306.634 294.912 305.283 294.075 304.132C293.875 303.622 293.796 303.073 293.843 302.528C293.89 301.982 294.062 301.455 294.345 300.986C294.628 300.517 295.016 300.12 295.477 299.825C295.938 299.53 296.461 299.345 297.005 299.284C307.338 298.083 318.015 298.465 328.251 296.714C330.271 296.369 332.63 295.734 333.449 293.482C333.988 292.087 333.681 290.465 333.239 289.037C331.165 282.395 325.773 277.843 320.068 275.807C314.363 273.77 308.297 273.878 302.344 273.996L68.4008 278.699C60.3201 278.861 47.3101 276.006 39.7303 279.459C34.9842 281.63 29.0637 292.167 35.8085 296.386Z" fill="#1D2741"/>
<path d="M85.6343 305.162L77.2572 281.932C77.2572 281.932 73.831 277.978 82.9676 276.222C92.1043 274.466 268.889 276.222 268.889 276.222L273.005 305.14L85.6343 305.162Z" fill="url(#paint4_linear_234_665)"/>
<path d="M273.005 305.162V307.554C273.005 309.465 272.246 311.299 270.894 312.65C269.543 314.002 267.709 314.762 265.797 314.762H92.8694C90.9578 314.762 89.1244 314.002 87.7726 312.65C86.4208 311.299 85.6614 309.465 85.6614 307.554V305.162C85.6586 304.214 85.843 303.275 86.2042 302.399C86.5654 301.523 87.0961 300.727 87.7659 300.057C88.4357 299.386 89.2314 298.855 90.1073 298.493C90.9831 298.131 91.9218 297.946 92.8694 297.948H265.797C266.745 297.946 267.684 298.131 268.56 298.493C269.435 298.855 270.231 299.386 270.901 300.057C271.571 300.727 272.102 301.523 272.463 302.399C272.824 303.275 273.008 304.214 273.005 305.162Z" fill="url(#paint5_linear_234_665)"/>
<path d="M272.704 303.077C272.254 304.559 271.34 305.856 270.097 306.779C268.853 307.701 267.346 308.2 265.798 308.2H92.8695C91.3211 308.2 89.8138 307.701 88.5702 306.779C87.3266 305.856 86.4126 304.559 85.9631 303.077C86.4117 301.594 87.3253 300.295 88.569 299.371C89.8126 298.448 91.3204 297.949 92.8695 297.948H265.798C267.347 297.949 268.854 298.448 270.098 299.371C271.342 300.295 272.255 301.594 272.704 303.077Z" fill="#60A5FA"/>
<path d="M85.6343 305.162L77.2572 281.932C77.2572 281.932 73.831 277.978 82.9676 276.222C92.1043 274.466 268.889 276.222 268.889 276.222L273.005 305.14L85.6343 305.162Z" fill="url(#paint6_linear_234_665)"/>
<path d="M272.704 303.077C272.254 304.558 271.34 305.856 270.097 306.779C268.853 307.701 267.346 308.2 265.798 308.2H92.8695C91.3211 308.2 89.8138 307.701 88.5702 306.779C87.3266 305.856 86.4126 304.558 85.9631 303.077C86.4117 301.594 87.3253 300.295 88.569 299.371C89.8126 298.448 91.3204 297.949 92.8695 297.948L268.917 295.028C272.149 295.028 271.804 300.108 272.704 303.077Z" fill="url(#paint7_linear_234_665)"/>
<path d="M268.89 187.775V287.476C268.89 290.253 267.786 292.917 265.822 294.881C263.858 296.845 261.195 297.948 258.417 297.948H100.223C98.8472 297.95 97.4847 297.68 96.2135 297.154C94.9423 296.628 93.7872 295.857 92.8145 294.884C91.8417 293.911 91.0703 292.756 90.5445 291.485C90.0187 290.214 89.7488 288.851 89.7502 287.476V187.775C89.7502 184.998 90.8536 182.334 92.8176 180.37C94.7816 178.406 97.4454 177.303 100.223 177.303H258.417C259.793 177.301 261.155 177.571 262.426 178.097C263.698 178.623 264.853 179.394 265.825 180.367C266.798 181.34 267.57 182.495 268.095 183.766C268.621 185.037 268.891 186.4 268.89 187.775Z" fill="#60A5FA"/>
<path d="M268.89 187.775V287.476C268.89 290.253 267.786 292.917 265.822 294.881C263.858 296.845 261.195 297.948 258.417 297.948H100.223C98.8472 297.95 97.4847 297.68 96.2135 297.154C94.9423 296.628 93.7872 295.857 92.8145 294.884C91.8417 293.911 91.0703 292.756 90.5445 291.485C90.0187 290.214 89.7488 288.851 89.7502 287.476V187.775C89.7502 184.998 90.8536 182.334 92.8176 180.37C94.7816 178.406 97.4454 177.303 100.223 177.303H258.417C259.793 177.301 261.155 177.571 262.426 178.097C263.698 178.623 264.853 179.394 265.825 180.367C266.798 181.34 267.57 182.495 268.095 183.766C268.621 185.037 268.891 186.4 268.89 187.775Z" fill="url(#paint8_linear_234_665)"/>
<path d="M268.89 187.775V287.48C268.891 289.177 268.479 290.849 267.688 292.351C266.898 293.853 265.753 295.14 264.354 296.1C264.327 296.122 264.298 296.142 264.267 296.159C262.702 297.223 260.873 297.836 258.983 297.931H100.217C98.6806 297.931 97.1628 297.591 95.773 296.935C95.1144 295.544 94.774 294.024 94.7764 292.485V192.801C94.7764 190.023 95.8797 187.36 97.8437 185.396C99.8078 183.432 102.472 182.328 105.249 182.328H263.443C264.981 182.325 266.501 182.664 267.893 183.319C268.552 184.712 268.893 186.234 268.89 187.775Z" fill="#60A5FA"/>
<path d="M50.3108 230.506C50.3108 230.506 32.1076 261.277 34.451 272.994C36.7944 284.712 89.7502 280.493 89.7502 280.493V252.367H78.518L84.0237 245.805L50.3108 230.506Z" fill="url(#paint9_linear_234_665)"/>
<path d="M307.139 230.506C307.139 230.506 322.761 265.027 323.219 272.057C323.677 279.087 320.105 281.969 305.727 283.812C291.349 285.654 268.89 283.812 268.89 283.812V249.07L276.706 248.601L273.426 245.789L307.139 230.506Z" fill="url(#paint10_linear_234_665)"/>
<path d="M159.239 147.166C159.239 147.166 158.733 159.066 168.785 166.56C178.838 174.054 190.334 166.802 193.13 161.879C195.926 156.955 200.079 144.984 200.079 144.984L159.239 147.166Z" fill="url(#paint11_linear_234_665)"/>
<path d="M137.82 98.2294C137.82 98.2294 141.397 143.923 168.791 152.139C196.185 160.354 219.166 131.479 221.493 98.2294C223.821 64.9798 202.1 34.8278 172.901 40.9854C143.703 47.1429 133.839 78.1514 137.82 98.2294Z" fill="url(#paint12_linear_234_665)"/>
<path d="M233.814 75.3016C234.455 77.6827 233.814 80.2039 233.038 82.542C230.284 90.8825 225.925 98.6037 220.206 105.27C220.357 104.355 220.486 103.428 220.588 102.507C221.433 95.1839 220.924 87.7681 219.085 80.6295C214.959 78.8356 210.595 83.8618 206.156 83.0807C202.202 82.4073 200.386 77.6935 196.89 75.7056C193.394 73.7178 188.809 75.0107 185.356 77.1117C181.903 79.2127 178.822 82.084 175.029 83.5332C166.345 86.8355 156.917 81.8416 148.977 77.0147L147.441 82.4396H146.978L146.035 82.4773C144.35 82.5468 142.726 83.133 141.384 84.1564C140.043 85.1798 139.049 86.5909 138.536 88.1985C136.796 93.5856 137.804 98.1863 138.671 104.748C138.736 105.233 139.086 107.441 139.248 107.916C133.86 99.0913 128.328 86.9056 130.628 76.8531C131.071 75.2568 131.431 73.6384 131.705 72.0047C131.98 69.7151 131.598 67.404 131.463 65.1037C131.134 59.5442 132.465 53.5806 136.457 49.691C145.933 40.479 153.696 27.8999 166.221 23.6764C172.512 21.5946 179.159 20.8078 185.762 21.3633C192.365 21.9188 198.788 23.8051 204.642 26.9087C210.568 30.0871 215.734 34.4507 220.868 38.7605C224.78 42.0736 228.728 45.4352 231.449 49.7449C234.169 54.0546 235.538 59.5011 233.803 64.2902C233.103 66.2296 231.901 68.1044 232.041 70.1569C232.165 71.9508 233.334 73.5346 233.814 75.3016Z" fill="#3F3D56"/>
<path opacity="0.24" d="M226.045 91.9424C224.478 95.568 222.84 99.2905 220.588 102.507C221.433 95.1838 220.924 87.7679 219.085 80.6294C214.959 78.8355 210.595 83.8617 206.156 83.0805C202.202 82.4071 200.386 77.6934 196.89 75.7055C193.394 73.7177 188.809 75.0106 185.356 77.1116C181.903 79.2126 178.822 82.0839 175.029 83.5331C166.41 86.8138 157.041 81.9169 149.138 77.1116C148.745 73.6153 156.47 70.4045 169.329 75.4038C179.877 79.5089 189.262 60.406 202.838 65.6154C204.384 66.2133 205.208 68.018 206.754 68.6268C208.909 69.4672 211.274 68.7992 213.547 68.4759C215.821 68.1527 218.547 68.4167 219.759 70.3722C220.685 71.8699 220.357 73.8038 220.777 75.517C221.197 77.2301 223.341 78.8193 224.596 77.5856C225.043 80.2835 225.189 83.0225 225.033 85.7526C225.818 84.7454 226.847 83.9554 228.023 83.4576C228.405 86.3775 227.215 89.2435 226.045 91.9424ZM140.745 82.7034C137.545 89.4051 137.34 100.767 139.258 107.932C137.831 104.441 134.981 97.6959 134.14 93.9949C133.419 90.8542 133.004 87.261 134.905 84.6536C135.417 84.0849 135.857 83.4552 136.215 82.7789C136.393 82.2191 136.507 81.6407 136.554 81.055C136.85 79.1533 138.224 77.1116 140.147 77.2085C140.926 77.3059 141.667 77.5987 142.302 78.0597C143.46 78.7977 146.784 80.7156 146.994 82.4556L140.745 82.7034Z" fill="white"/>
<path d="M268.696 287.481C268.696 287.481 268.157 293.094 264.16 296.101C264.133 296.123 264.104 296.143 264.074 296.16C262.533 297.275 260.69 297.893 258.789 297.932H100.024C98.485 297.931 96.9656 297.591 95.5738 296.936C94.9194 295.543 94.5809 294.024 94.5825 292.486V240.139L268.696 287.481Z" fill="url(#paint13_linear_234_665)"/>
<path opacity="0.24" d="M110.884 296.477H95.7999L94.8032 282.066V192.801C94.8032 190.023 95.9066 187.359 97.8706 185.395C99.8346 183.431 102.498 182.328 105.276 182.328H143.703C143.703 182.328 103.342 182.468 101.483 191.427C99.6247 200.386 101.483 290.335 101.483 290.335C101.483 290.335 99.614 295.076 110.884 296.477Z" fill="white"/>
<defs>
<linearGradient id="paint0_linear_234_665" x1="139.56" y1="108.352" x2="132.826" y2="109.467" gradientUnits="userSpaceOnUse">
<stop stop-color="#ECC4D7"/>
<stop offset="0.16" stop-color="#EDCBD5"/>
<stop offset="0.42" stop-color="#EFD4D1"/>
<stop offset="0.7" stop-color="#F2EAC9"/>
</linearGradient>
<linearGradient id="paint1_linear_234_665" x1="219.936" y1="108.352" x2="226.676" y2="109.467" gradientUnits="userSpaceOnUse">
<stop stop-color="#ECC4D7"/>
<stop offset="0.16" stop-color="#EDCBD5"/>
<stop offset="0.42" stop-color="#EFD4D1"/>
<stop offset="0.7" stop-color="#F2EAC9"/>
</linearGradient>
<linearGradient id="paint2_linear_234_665" x1="183.191" y1="309.126" x2="184.268" y2="421.783" gradientUnits="userSpaceOnUse">
<stop offset="0.01" stop-opacity="0"/>
<stop offset="0.26" stop-color="#0D0D12" stop-opacity="0.21"/>
<stop offset="0.77" stop-color="#2F2E40" stop-opacity="0.75"/>
<stop offset="0.99" stop-color="#3F3D56"/>
</linearGradient>
<linearGradient id="paint3_linear_234_665" x1="172.551" y1="189.687" x2="180.847" y2="8.49545" gradientUnits="userSpaceOnUse">
<stop offset="0.01" stop-opacity="0"/>
<stop offset="0.26" stop-color="#0D0D12" stop-opacity="0.21"/>
<stop offset="0.77" stop-color="#2F2E40" stop-opacity="0.75"/>
<stop offset="0.99" stop-color="#3F3D56"/>
</linearGradient>
<linearGradient id="paint4_linear_234_665" x1="76.6269" y1="290.309" x2="273.005" y2="290.309" gradientUnits="userSpaceOnUse">
<stop offset="0.01" stop-opacity="0"/>
<stop offset="0.26" stop-color="#0D0D12" stop-opacity="0.21"/>
<stop offset="0.77" stop-color="#2F2E40" stop-opacity="0.75"/>
<stop offset="0.99" stop-color="#3F3D56"/>
</linearGradient>
<linearGradient id="paint5_linear_234_665" x1="177.777" y1="334.479" x2="179.791" y2="297.754" gradientUnits="userSpaceOnUse">
<stop stop-color="white"/>
<stop offset="1" stop-color="#2563EB"/>
</linearGradient>
<linearGradient id="paint6_linear_234_665" x1="174.76" y1="306.002" x2="175.067" y2="234.277" gradientUnits="userSpaceOnUse">
<stop offset="0.01" stop-opacity="0"/>
<stop offset="0.26" stop-color="#0D0D12" stop-opacity="0.21"/>
<stop offset="0.77" stop-color="#2F2E40" stop-opacity="0.75"/>
<stop offset="0.99" stop-color="#3F3D56"/>
</linearGradient>
<linearGradient id="paint7_linear_234_665" x1="237.908" y1="281.884" x2="9.81014" y2="364.383" gradientUnits="userSpaceOnUse">
<stop offset="0.01" stop-opacity="0"/>
<stop offset="0.26" stop-color="#0D0D12" stop-opacity="0.21"/>
<stop offset="0.77" stop-color="#2F2E40" stop-opacity="0.75"/>
<stop offset="0.99" stop-color="#3F3D56"/>
</linearGradient>
<linearGradient id="paint8_linear_234_665" x1="176.144" y1="150.717" x2="182.199" y2="316.453" gradientUnits="userSpaceOnUse">
<stop offset="0.01" stop-opacity="0"/>
<stop offset="0.26" stop-color="#0D0D12" stop-opacity="0.21"/>
<stop offset="0.77" stop-color="#2F2E40" stop-opacity="0.75"/>
<stop offset="0.99" stop-color="#3F3D56"/>
</linearGradient>
<linearGradient id="paint9_linear_234_665" x1="57.368" y1="352.649" x2="70.4965" y2="133.262" gradientUnits="userSpaceOnUse">
<stop stop-color="#ECC4D7"/>
<stop offset="0.16" stop-color="#EDCBD5"/>
<stop offset="0.42" stop-color="#EFD4D1"/>
<stop offset="0.7" stop-color="#F2EAC9"/>
</linearGradient>
<linearGradient id="paint10_linear_234_665" x1="287.438" y1="405.675" x2="302.058" y2="161.356" gradientUnits="userSpaceOnUse">
<stop stop-color="#ECC4D7"/>
<stop offset="0.16" stop-color="#EDCBD5"/>
<stop offset="0.42" stop-color="#EFD4D1"/>
<stop offset="0.7" stop-color="#F2EAC9"/>
</linearGradient>
<linearGradient id="paint11_linear_234_665" x1="176.855" y1="192.93" x2="183.724" y2="78.1081" gradientUnits="userSpaceOnUse">
<stop stop-color="#ECC4D7"/>
<stop offset="0.16" stop-color="#EDCBD5"/>
<stop offset="0.42" stop-color="#EFD4D1"/>
<stop offset="0.7" stop-color="#F2EAC9"/>
</linearGradient>
<linearGradient id="paint12_linear_234_665" x1="180.001" y1="24.1181" x2="178.127" y2="208.817" gradientUnits="userSpaceOnUse">
<stop stop-color="#ECC4D7"/>
<stop offset="0.16" stop-color="#EDCBD5"/>
<stop offset="0.42" stop-color="#EFD4D1"/>
<stop offset="0.7" stop-color="#F2EAC9"/>
</linearGradient>
<linearGradient id="paint13_linear_234_665" x1="189.612" y1="205.871" x2="136.974" y2="588.505" gradientUnits="userSpaceOnUse">
<stop offset="0.01" stop-opacity="0"/>
<stop offset="0.26" stop-color="#0D0D12" stop-opacity="0.21"/>
<stop offset="0.77" stop-color="#2F2E40" stop-opacity="0.75"/>
<stop offset="0.99" stop-color="#3F3D56"/>
</linearGradient>
</defs>
</svg>
