<svg width="28" height="28" viewBox="0 0 28 28" fill="none" xmlns="http://www.w3.org/2000/svg">
<path fill-rule="evenodd" clip-rule="evenodd" d="M26.9637 5.24349C27.3345 3.43543 25.5586 1.93289 23.837 2.59809L2.73292 10.7519C0.810275 11.4948 0.724607 14.1833 2.59605 15.047L7.19192 17.1682L9.37824 24.8203C9.49181 25.2178 9.80721 25.5255 10.2074 25.6293C10.6075 25.7329 11.0327 25.6171 11.325 25.3248L14.6928 21.9569L19.4104 25.4952C20.7799 26.5222 22.7522 25.7742 23.0962 24.0973L26.9637 5.24349ZM3.57385 12.9285L24.6779 4.77462L20.8104 23.6285L15.2833 19.4831C14.8189 19.1348 14.1689 19.181 13.7584 19.5915L12.3159 21.034L12.7493 18.6504L21.2416 10.1581C21.655 9.74483 21.6986 9.08949 21.3438 8.62501C20.989 8.16051 20.3454 8.03023 19.8379 8.32022L8.10978 15.0219L3.57385 12.9285ZM9.53978 16.8922L10.2472 19.3683L10.5188 17.8744C10.5613 17.641 10.6739 17.426 10.8417 17.2582L13.4316 14.6684L9.53978 16.8922Z" fill="#F8FAFC"/>
</svg>
