<svg width="50" height="50" viewBox="0 0 50 50" fill="none" xmlns="http://www.w3.org/2000/svg">
<g clip-path="url(#clip0_188_471)">
<path d="M42.1875 0C46.5022 0 50 3.49778 50 7.8125V42.1875C50 46.5022 46.5022 50 42.1875 50H9.375C4.315 50 0.191294 45.9913 0.00646636 40.9765L0 40.625V28.125C0 23.065 4.00871 18.9413 9.02353 18.7565L9.375 18.75H18.75V7.8125C18.75 3.49778 22.2478 0 26.5625 0L42.1875 0ZM18.75 21.875H9.375C6.02782 21.875 3.29519 24.5062 3.13265 27.8131L3.125 28.125V40.625C3.125 43.9722 5.7562 46.7048 9.06306 46.8674L9.375 46.875L20.3133 46.8769C19.3317 45.5708 18.75 43.9471 18.75 42.1875V21.875ZM26.6963 3.1261L26.5625 3.125C24.0661 3.125 22.0255 5.07644 21.883 7.53707L21.875 7.8125V42.1875C21.875 44.6839 23.8264 46.7245 26.2871 46.867L26.5625 46.875H42.1875C44.6839 46.875 46.7245 44.9236 46.867 42.4629L46.875 42.1875V7.8125C46.875 5.31612 44.9236 3.27553 42.4629 3.13296L42.1875 3.125L42.0537 3.1261C41.7317 4.03583 40.8638 4.6875 39.8438 4.6875H28.9062C27.8862 4.6875 27.0183 4.03583 26.6963 3.1261ZM40.625 23.4375C41.4879 23.4375 42.1875 24.1371 42.1875 25C42.1875 25.8629 41.4879 26.5625 40.625 26.5625H28.125C27.2621 26.5625 26.5625 25.8629 26.5625 25C26.5625 24.1371 27.2621 23.4375 28.125 23.4375H40.625ZM35.9375 15.625C36.8004 15.625 37.5 16.3246 37.5 17.1875C37.5 18.0504 36.8004 18.75 35.9375 18.75H28.125C27.2621 18.75 26.5625 18.0504 26.5625 17.1875C26.5625 16.3246 27.2621 15.625 28.125 15.625H35.9375Z" fill="#3B82F6"/>
</g>
<defs>
<clipPath id="clip0_188_471">
<rect width="50" height="50" fill="white"/>
</clipPath>
</defs>
</svg>
